# xmcd CD database file
#
# Track frame offsets:
#	150
#	11157
#	24607
#	37160
#	55162
#	71775
#	91100
#	107775
#	122397
#	142825
#	160962
#	178667
#
# Disc length: 2826 seconds
#
# Revision: 0
# Processed by: cddbd v1.5.1PL0 Copyright (c) Steve Scherf et al.
# Submitted via: CDex 1.51
#
DISCID=9e0b080c
DTITLE=ギターウルフ - WOLF ROCK!
DYEAR=1995
DGENRE=Rock
TTITLE0=WOLF ROCK
TTITLE1=ACE OF SPADE
TTITLE2=INDIAN GUITAR
TTITLE3=APACHI LEATHER
TTITLE4=RED ROCKABILLY
TTITLE5=MARS TWIST
TTITLE6=SHOOTING STAR NOISE
TTITLE7=J JUPITER JOAN
TTITLE8=MACHINE GUN GUITAR
TTITLE9=JACK THE RIPPER
TTITLE10=RUMBLE
TTITLE11=GLORIA
EXTD=YEAR: 1995
EXTT0=
EXTT1=
EXTT2=
EXTT3=
EXTT4=
EXTT5=
EXTT6=
EXTT7=
EXTT8=
EXTT9=
EXTT10=
EXTT11=
PLAYORDER=
